<svg id="Layer_1" data-name="Layer 1" xmlns="http://www.w3.org/2000/svg" viewBox="0 0 376.94 80.39"><defs><style>.cls-1{fill:#fff27b;stroke:#323232;stroke-miterlimit:10;stroke-width:0.5px;}</style></defs><path class="cls-1" d="M73.28,61.48a12.27,12.27,0,0,0-6.72,2.66l3.25,5.47h.5a9.68,9.68,0,0,1,5.43-2.27c1.64,0,2.19.86,2.19,1.53,0,2.73-3.16,4.84-6.4,4.84-4.34,0-9-3.52-14.65-10.86h-.47L54.53,65c7,9.53,13.21,14.18,19.1,14.18,5,0,8.44-3.28,8.44-7.23a11,11,0,0,0-1.4-5.08C78.63,63,76.1,61.48,73.28,61.48Z"/><path class="cls-1" d="M82.93,19H1.8l-.55.74,2.66,5.36h8.71a27.69,27.69,0,0,1,.51,5.43,19.51,19.51,0,0,1-.59,5.15,30.84,30.84,0,0,0-3.28-.23,3.81,3.81,0,0,0-4,4.1c0,1.56.89,3.91,2.89,6.91,3.82,5.82,9.45,11.14,16,16.1h.59l2.93-6.53c-6-2.85-10.71-5.82-13.79-9A20.42,20.42,0,0,0,18.28,43a22.34,22.34,0,0,0,9.14,2.11,45,45,0,0,0,5.24-.28l-.2,13.52,6.21,1.8.55-.39-.16-34.65H52.85v12.5c-5.27,1.13-6.21,2.81-6.21,4.57,0,2,1.29,4.1,3.48,6.21,2.5,2.34,4.41,3.4,5.7,3.4a3.41,3.41,0,0,0,2-.71c1.29-.93,1.45-1.6,1.45-6.64H71.84l-.2,13.91,6.21,1.8.55-.39-.16-34.65h27.07v4.53c0,1.05-.35,1.48-1.4,1.48h-4c-10.82,0-13.63,5.39-13.63,10.43,0,4.57,2.73,8.32,5.47,10.9a16.21,16.21,0,0,0,19,2.81,5.59,5.59,0,0,1,1.84,4.07c0,2.42-2.07,4.68-5.43,6.79l6.56,5.24H114c3-1.92,5-4.89,5-8.13,0-3.67-2.08-6.37-5.47-9.57,2.18-1.8,3.43-3.83,3.43-6.13a6.53,6.53,0,0,0-6.36-6.68c-3.09,0-5.55,1.87-5.55,5.12a5.91,5.91,0,0,0,1.13,3.59,11.41,11.41,0,0,1-6.64,1.91,6.23,6.23,0,0,1-6.52-6.6c0-4.22,3.4-7.73,13.67-7.73h4.49l.59-.82,0-11.21h8l.54-.75L117.7,19ZM32.62,37.54a29,29,0,0,1-7,.74,34.37,34.37,0,0,1-6.29-.62,32.92,32.92,0,0,0,.19-4,44.34,44.34,0,0,0-.82-8.51H32.62Zm39.18.27H59.14V25.12H71.8Z"/><path class="cls-1" d="M107,58.14a17.49,17.49,0,0,0-10.35,3.44c-3.17,2.26-7.74,6.68-12.07,10.9l1.52,2.46h.47C93,68.69,97.17,64.7,103.38,64.7a19.84,19.84,0,0,1,3.44.24l.31-.24,2.5-6.44C108.74,58.18,107.88,58.14,107,58.14Z"/><path class="cls-1" d="M179.32,19H131.51l-.55.74,2.66,5.36H155.1v5.74a29.08,29.08,0,0,0-8.86-1.53c-6.1,0-10.67,3.68-10.67,9.38,0,2.81,1.49,5.62,3.52,8,2.77,2.85,5.43,4.88,9.57,4.88a10.27,10.27,0,0,0,6.4-2l.08,0L155,58.36l6.05,1.8.55-.39-.08-15.55c3.16-3.67,6.6-6.21,9.41-6.21,1.37,0,2,.66,2,2.11,0,3-2.5,7.34-5.86,11.52l5.82,4.49h.55c3-3.9,4.88-8.44,4.88-12.38A11.67,11.67,0,0,0,175,35.66a9.25,9.25,0,0,0-7.19-3.36,10.92,10.92,0,0,0-6.25,2.27l-.12-.08V25.12h23.44l-.16,33.2L191,60.16l.55-.39-.16-34.65h6.8l.55-.75L196,19ZM155.18,41c-3,3.12-6.13,4.6-9.14,4.6-2.62,0-4.18-1-4.18-3.12,0-3.83,3-7.15,9.53-7.15a19.24,19.24,0,0,1,3.79.35Z"/><path class="cls-1" d="M375.69,24.37,373,19H223.3a5.52,5.52,0,0,1-.54-2.5c0-4.65,4.29-8.75,11.13-8.75,7,0,13.55,3.83,19.92,9.77h.51L256,15c-9.69-9.57-18.28-13.75-26.17-13.75-9.1,0-13.52,5.74-13.52,11.05,0,2.39,1.06,4.46,3,6.76h-7.38l-.55.74L214,25.12h4.1l-.16,33.2,6.29,1.84.55-.39-.16-34.65h27.35v5.74a29.08,29.08,0,0,0-8.86-1.53c-6.1,0-10.67,3.68-10.67,9.38,0,2.81,1.49,5.62,3.52,8,2.77,2.85,5.43,4.88,9.57,4.88a10.27,10.27,0,0,0,6.4-2l.08,0-.19,8.79,6,1.8.55-.39-.08-15.55c3.16-3.67,6.6-6.21,9.41-6.21,1.37,0,2,.66,2,2.11,0,3-2.5,7.34-5.86,11.52l5.82,4.49h.54c3-3.9,4.89-8.44,4.89-12.38a11.67,11.67,0,0,0-3.28-8.09,9.25,9.25,0,0,0-7.19-3.36,10.92,10.92,0,0,0-6.25,2.27l-.12-.08V25.12h42.93v8.71a83.65,83.65,0,0,0-11.53-.94c-10.27,0-10.85,5.19-10.85,6.21,0,1.64,1.09,3.67,3.28,6s4,3.43,5.35,3.43a3.4,3.4,0,0,0,3.4-4,36.24,36.24,0,0,0-.36-4.3,22.52,22.52,0,0,1,5.71-.58c1.83,0,3.2,0,5,.19L301,58.36l6.21,1.8.55-.39-.16-34.65h10.2l-.16,33.2,6.29,1.84.55-.39-.16-34.65h18.75a11.6,11.6,0,0,1,.31,3c0,2.9-.58,4.65-1.44,5.79-1.21-.12-3-.16-4.84-.16a4,4,0,0,0-3.68,1.64,4.25,4.25,0,0,0-.66,2.19,10.33,10.33,0,0,0,1.48,4c3.71,6.88,10,13.17,17.93,19.1h.59l3-6.64c-6.06-2.89-11.17-6.05-14.42-9.57,5-2.77,8.52-6.72,8.52-14.53a25.42,25.42,0,0,0-.43-4.8h12.38l-.15,33.2L368,60.16l.55-.39-.15-34.65h6.79ZM252,41c-3,3.12-6.13,4.6-9.14,4.6-2.62,0-4.18-1-4.18-3.12,0-3.83,3-7.15,9.53-7.15a19.24,19.24,0,0,1,3.79.35Z"/></svg>